<mxfile host="65bd71144e">
    <diagram id="GT4ygt3NVhvkUGBA8WEg" name="Page-1">
        <mxGraphModel dx="832" dy="368" grid="1" gridSize="10" guides="1" tooltips="1" connect="1" arrows="1" fold="1" page="1" pageScale="1" pageWidth="1169" pageHeight="827" math="0" shadow="0">
            <root>
                <mxCell id="0"/>
                <mxCell id="1" parent="0"/>
                <mxCell id="105" value="USERS" style="shape=table;startSize=30;container=1;collapsible=0;childLayout=tableLayout;fixedRows=1;rowLines=0;fontStyle=1;labelBorderColor=none;sketch=0;fillStyle=auto;gradientDirection=north;fillColor=none;strokeColor=#B3FF66;" parent="1" vertex="1">
                    <mxGeometry x="40" y="440" width="180" height="180" as="geometry"/>
                </mxCell>
                <mxCell id="106" value="" style="shape=tableRow;horizontal=0;startSize=0;swimlaneHead=0;swimlaneBody=0;top=0;left=0;bottom=0;right=0;collapsible=0;dropTarget=0;fillColor=none;points=[[0,0.5],[1,0.5]];portConstraint=eastwest;labelBorderColor=none;sketch=0;fillStyle=auto;strokeColor=#B3FF66;" parent="105" vertex="1">
                    <mxGeometry y="30" width="180" height="30" as="geometry"/>
                </mxCell>
                <mxCell id="107" value="ID" style="shape=partialRectangle;html=1;whiteSpace=wrap;connectable=0;fillColor=none;top=0;left=0;bottom=0;right=0;overflow=hidden;pointerEvents=1;labelBorderColor=none;sketch=0;fillStyle=auto;strokeColor=#B3FF66;" parent="106" vertex="1">
                    <mxGeometry width="80" height="30" as="geometry">
                        <mxRectangle width="80" height="30" as="alternateBounds"/>
                    </mxGeometry>
                </mxCell>
                <mxCell id="108" value="SERIAL&amp;nbsp;" style="shape=partialRectangle;html=1;whiteSpace=wrap;connectable=0;fillColor=none;top=0;left=0;bottom=0;right=0;align=left;spacingLeft=6;overflow=hidden;labelBorderColor=none;sketch=0;fillStyle=auto;strokeColor=#B3FF66;" parent="106" vertex="1">
                    <mxGeometry x="80" width="100" height="30" as="geometry">
                        <mxRectangle width="100" height="30" as="alternateBounds"/>
                    </mxGeometry>
                </mxCell>
                <mxCell id="119" value="" style="shape=tableRow;horizontal=0;startSize=0;swimlaneHead=0;swimlaneBody=0;top=0;left=0;bottom=0;right=0;collapsible=0;dropTarget=0;fillColor=none;points=[[0,0.5],[1,0.5]];portConstraint=eastwest;labelBorderColor=none;sketch=0;fillStyle=auto;strokeColor=#B3FF66;" parent="105" vertex="1">
                    <mxGeometry y="60" width="180" height="30" as="geometry"/>
                </mxCell>
                <mxCell id="120" value="PSEUDO" style="shape=partialRectangle;html=1;whiteSpace=wrap;connectable=0;fillColor=none;top=0;left=0;bottom=0;right=0;overflow=hidden;pointerEvents=1;labelBorderColor=none;sketch=0;fillStyle=auto;strokeColor=#B3FF66;" parent="119" vertex="1">
                    <mxGeometry width="80" height="30" as="geometry">
                        <mxRectangle width="80" height="30" as="alternateBounds"/>
                    </mxGeometry>
                </mxCell>
                <mxCell id="121" value="VARCHAR" style="shape=partialRectangle;html=1;whiteSpace=wrap;connectable=0;fillColor=none;top=0;left=0;bottom=0;right=0;align=left;spacingLeft=6;overflow=hidden;labelBorderColor=none;sketch=0;fillStyle=auto;strokeColor=#B3FF66;" parent="119" vertex="1">
                    <mxGeometry x="80" width="100" height="30" as="geometry">
                        <mxRectangle width="100" height="30" as="alternateBounds"/>
                    </mxGeometry>
                </mxCell>
                <mxCell id="116" value="" style="shape=tableRow;horizontal=0;startSize=0;swimlaneHead=0;swimlaneBody=0;top=0;left=0;bottom=0;right=0;collapsible=0;dropTarget=0;fillColor=none;points=[[0,0.5],[1,0.5]];portConstraint=eastwest;labelBorderColor=none;sketch=0;fillStyle=auto;strokeColor=#B3FF66;" parent="105" vertex="1">
                    <mxGeometry y="90" width="180" height="30" as="geometry"/>
                </mxCell>
                <mxCell id="117" value="EMAIL" style="shape=partialRectangle;html=1;whiteSpace=wrap;connectable=0;fillColor=none;top=0;left=0;bottom=0;right=0;overflow=hidden;pointerEvents=1;labelBorderColor=none;sketch=0;fillStyle=auto;strokeColor=#B3FF66;" parent="116" vertex="1">
                    <mxGeometry width="80" height="30" as="geometry">
                        <mxRectangle width="80" height="30" as="alternateBounds"/>
                    </mxGeometry>
                </mxCell>
                <mxCell id="118" value="VARCHAR" style="shape=partialRectangle;html=1;whiteSpace=wrap;connectable=0;fillColor=none;top=0;left=0;bottom=0;right=0;align=left;spacingLeft=6;overflow=hidden;labelBorderColor=none;sketch=0;fillStyle=auto;strokeColor=#B3FF66;" parent="116" vertex="1">
                    <mxGeometry x="80" width="100" height="30" as="geometry">
                        <mxRectangle width="100" height="30" as="alternateBounds"/>
                    </mxGeometry>
                </mxCell>
                <mxCell id="109" value="" style="shape=tableRow;horizontal=0;startSize=0;swimlaneHead=0;swimlaneBody=0;top=0;left=0;bottom=0;right=0;collapsible=0;dropTarget=0;fillColor=none;points=[[0,0.5],[1,0.5]];portConstraint=eastwest;labelBorderColor=none;sketch=0;fillStyle=auto;strokeColor=#B3FF66;" parent="105" vertex="1">
                    <mxGeometry y="120" width="180" height="30" as="geometry"/>
                </mxCell>
                <mxCell id="110" value="PASSWORD" style="shape=partialRectangle;html=1;whiteSpace=wrap;connectable=0;fillColor=none;top=0;left=0;bottom=0;right=0;overflow=hidden;labelBorderColor=none;sketch=0;fillStyle=auto;strokeColor=#B3FF66;" parent="109" vertex="1">
                    <mxGeometry width="80" height="30" as="geometry">
                        <mxRectangle width="80" height="30" as="alternateBounds"/>
                    </mxGeometry>
                </mxCell>
                <mxCell id="111" value="VARCHAR" style="shape=partialRectangle;html=1;whiteSpace=wrap;connectable=0;fillColor=none;top=0;left=0;bottom=0;right=0;align=left;spacingLeft=6;overflow=hidden;labelBorderColor=none;sketch=0;fillStyle=auto;strokeColor=#B3FF66;" parent="109" vertex="1">
                    <mxGeometry x="80" width="100" height="30" as="geometry">
                        <mxRectangle width="100" height="30" as="alternateBounds"/>
                    </mxGeometry>
                </mxCell>
                <mxCell id="112" value="" style="shape=tableRow;horizontal=0;startSize=0;swimlaneHead=0;swimlaneBody=0;top=0;left=0;bottom=0;right=0;collapsible=0;dropTarget=0;fillColor=none;points=[[0,0.5],[1,0.5]];portConstraint=eastwest;labelBorderColor=none;sketch=0;fillStyle=auto;strokeColor=#B3FF66;" parent="105" vertex="1">
                    <mxGeometry y="150" width="180" height="30" as="geometry"/>
                </mxCell>
                <mxCell id="113" value="CREATE_AT" style="shape=partialRectangle;html=1;whiteSpace=wrap;connectable=0;fillColor=none;top=0;left=0;bottom=0;right=0;overflow=hidden;labelBorderColor=none;sketch=0;fillStyle=auto;strokeColor=#B3FF66;" parent="112" vertex="1">
                    <mxGeometry width="80" height="30" as="geometry">
                        <mxRectangle width="80" height="30" as="alternateBounds"/>
                    </mxGeometry>
                </mxCell>
                <mxCell id="114" value="DATE" style="shape=partialRectangle;html=1;whiteSpace=wrap;connectable=0;fillColor=none;top=0;left=0;bottom=0;right=0;align=left;spacingLeft=6;overflow=hidden;labelBorderColor=none;sketch=0;fillStyle=auto;strokeColor=#B3FF66;" parent="112" vertex="1">
                    <mxGeometry x="80" width="100" height="30" as="geometry">
                        <mxRectangle width="100" height="30" as="alternateBounds"/>
                    </mxGeometry>
                </mxCell>
                <mxCell id="122" value="CONTINENTS" style="shape=table;startSize=30;container=1;collapsible=0;childLayout=tableLayout;fixedRows=1;rowLines=0;fontStyle=1;labelBorderColor=none;sketch=0;fillStyle=auto;strokeColor=#B3FF66;fillColor=none;gradientColor=none;gradientDirection=north;" parent="1" vertex="1">
                    <mxGeometry x="320" y="280" width="180" height="180" as="geometry"/>
                </mxCell>
                <mxCell id="123" value="" style="shape=tableRow;horizontal=0;startSize=0;swimlaneHead=0;swimlaneBody=0;top=0;left=0;bottom=0;right=0;collapsible=0;dropTarget=0;fillColor=none;points=[[0,0.5],[1,0.5]];portConstraint=eastwest;labelBorderColor=none;sketch=0;fillStyle=auto;strokeColor=#B3FF66;" parent="122" vertex="1">
                    <mxGeometry y="30" width="180" height="30" as="geometry"/>
                </mxCell>
                <mxCell id="124" value="1" style="shape=partialRectangle;html=1;whiteSpace=wrap;connectable=0;fillColor=none;top=0;left=0;bottom=0;right=0;overflow=hidden;pointerEvents=1;labelBorderColor=none;sketch=0;fillStyle=auto;strokeColor=#B3FF66;" parent="123" vertex="1">
                    <mxGeometry width="70" height="30" as="geometry">
                        <mxRectangle width="70" height="30" as="alternateBounds"/>
                    </mxGeometry>
                </mxCell>
                <mxCell id="125" value="EUROPE" style="shape=partialRectangle;html=1;whiteSpace=wrap;connectable=0;fillColor=none;top=0;left=0;bottom=0;right=0;align=left;spacingLeft=6;overflow=hidden;labelBorderColor=none;sketch=0;fillStyle=auto;strokeColor=#B3FF66;" parent="123" vertex="1">
                    <mxGeometry x="70" width="110" height="30" as="geometry">
                        <mxRectangle width="110" height="30" as="alternateBounds"/>
                    </mxGeometry>
                </mxCell>
                <mxCell id="126" value="" style="shape=tableRow;horizontal=0;startSize=0;swimlaneHead=0;swimlaneBody=0;top=0;left=0;bottom=0;right=0;collapsible=0;dropTarget=0;fillColor=none;points=[[0,0.5],[1,0.5]];portConstraint=eastwest;labelBorderColor=none;sketch=0;fillStyle=auto;strokeColor=#B3FF66;" parent="122" vertex="1">
                    <mxGeometry y="60" width="180" height="30" as="geometry"/>
                </mxCell>
                <mxCell id="127" value="2" style="shape=partialRectangle;html=1;whiteSpace=wrap;connectable=0;fillColor=none;top=0;left=0;bottom=0;right=0;overflow=hidden;pointerEvents=1;labelBorderColor=none;sketch=0;fillStyle=auto;strokeColor=#B3FF66;" parent="126" vertex="1">
                    <mxGeometry width="70" height="30" as="geometry">
                        <mxRectangle width="70" height="30" as="alternateBounds"/>
                    </mxGeometry>
                </mxCell>
                <mxCell id="128" value="AFRIQUE" style="shape=partialRectangle;html=1;whiteSpace=wrap;connectable=0;fillColor=none;top=0;left=0;bottom=0;right=0;align=left;spacingLeft=6;overflow=hidden;labelBorderColor=none;sketch=0;fillStyle=auto;strokeColor=#B3FF66;" parent="126" vertex="1">
                    <mxGeometry x="70" width="110" height="30" as="geometry">
                        <mxRectangle width="110" height="30" as="alternateBounds"/>
                    </mxGeometry>
                </mxCell>
                <mxCell id="129" value="" style="shape=tableRow;horizontal=0;startSize=0;swimlaneHead=0;swimlaneBody=0;top=0;left=0;bottom=0;right=0;collapsible=0;dropTarget=0;fillColor=none;points=[[0,0.5],[1,0.5]];portConstraint=eastwest;labelBorderColor=none;sketch=0;fillStyle=auto;strokeColor=#B3FF66;" parent="122" vertex="1">
                    <mxGeometry y="90" width="180" height="30" as="geometry"/>
                </mxCell>
                <mxCell id="130" value="3" style="shape=partialRectangle;html=1;whiteSpace=wrap;connectable=0;fillColor=none;top=0;left=0;bottom=0;right=0;overflow=hidden;pointerEvents=1;labelBorderColor=none;sketch=0;fillStyle=auto;strokeColor=#B3FF66;" parent="129" vertex="1">
                    <mxGeometry width="70" height="30" as="geometry">
                        <mxRectangle width="70" height="30" as="alternateBounds"/>
                    </mxGeometry>
                </mxCell>
                <mxCell id="131" value="ASIE" style="shape=partialRectangle;html=1;whiteSpace=wrap;connectable=0;fillColor=none;top=0;left=0;bottom=0;right=0;align=left;spacingLeft=6;overflow=hidden;labelBorderColor=none;sketch=0;fillStyle=auto;strokeColor=#B3FF66;" parent="129" vertex="1">
                    <mxGeometry x="70" width="110" height="30" as="geometry">
                        <mxRectangle width="110" height="30" as="alternateBounds"/>
                    </mxGeometry>
                </mxCell>
                <mxCell id="132" value="" style="shape=tableRow;horizontal=0;startSize=0;swimlaneHead=0;swimlaneBody=0;top=0;left=0;bottom=0;right=0;collapsible=0;dropTarget=0;fillColor=none;points=[[0,0.5],[1,0.5]];portConstraint=eastwest;labelBorderColor=none;sketch=0;fillStyle=auto;strokeColor=#B3FF66;" parent="122" vertex="1">
                    <mxGeometry y="120" width="180" height="30" as="geometry"/>
                </mxCell>
                <mxCell id="133" value="4" style="shape=partialRectangle;html=1;whiteSpace=wrap;connectable=0;fillColor=none;top=0;left=0;bottom=0;right=0;overflow=hidden;labelBorderColor=none;sketch=0;fillStyle=auto;strokeColor=#B3FF66;" parent="132" vertex="1">
                    <mxGeometry width="70" height="30" as="geometry">
                        <mxRectangle width="70" height="30" as="alternateBounds"/>
                    </mxGeometry>
                </mxCell>
                <mxCell id="134" value="AMERIQUE" style="shape=partialRectangle;html=1;whiteSpace=wrap;connectable=0;fillColor=none;top=0;left=0;bottom=0;right=0;align=left;spacingLeft=6;overflow=hidden;labelBorderColor=none;sketch=0;fillStyle=auto;strokeColor=#B3FF66;" parent="132" vertex="1">
                    <mxGeometry x="70" width="110" height="30" as="geometry">
                        <mxRectangle width="110" height="30" as="alternateBounds"/>
                    </mxGeometry>
                </mxCell>
                <mxCell id="135" value="" style="shape=tableRow;horizontal=0;startSize=0;swimlaneHead=0;swimlaneBody=0;top=0;left=0;bottom=0;right=0;collapsible=0;dropTarget=0;fillColor=none;points=[[0,0.5],[1,0.5]];portConstraint=eastwest;labelBorderColor=none;sketch=0;fillStyle=auto;strokeColor=#B3FF66;" parent="122" vertex="1">
                    <mxGeometry y="150" width="180" height="30" as="geometry"/>
                </mxCell>
                <mxCell id="136" value="5" style="shape=partialRectangle;html=1;whiteSpace=wrap;connectable=0;fillColor=none;top=0;left=0;bottom=0;right=0;overflow=hidden;labelBorderColor=none;sketch=0;fillStyle=auto;strokeColor=#B3FF66;" parent="135" vertex="1">
                    <mxGeometry width="70" height="30" as="geometry">
                        <mxRectangle width="70" height="30" as="alternateBounds"/>
                    </mxGeometry>
                </mxCell>
                <mxCell id="137" value="ANTARCTIQUE" style="shape=partialRectangle;html=1;whiteSpace=wrap;connectable=0;fillColor=none;top=0;left=0;bottom=0;right=0;align=left;spacingLeft=6;overflow=hidden;labelBorderColor=none;sketch=0;fillStyle=auto;strokeColor=#B3FF66;" parent="135" vertex="1">
                    <mxGeometry x="70" width="110" height="30" as="geometry">
                        <mxRectangle width="110" height="30" as="alternateBounds"/>
                    </mxGeometry>
                </mxCell>
                <mxCell id="204" style="edgeStyle=none;html=1;" edge="1" parent="1">
                    <mxGeometry relative="1" as="geometry">
                        <mxPoint x="425" y="899.199951171875" as="targetPoint"/>
                        <mxPoint x="425" y="770" as="sourcePoint"/>
                    </mxGeometry>
                </mxCell>
                <mxCell id="139" value="TOPICS" style="shape=table;startSize=30;container=1;collapsible=0;childLayout=tableLayout;fixedRows=1;rowLines=0;fontStyle=1;labelBorderColor=none;sketch=0;fillStyle=auto;strokeColor=#B3FF66;fillColor=none;gradientColor=none;gradientDirection=north;" parent="1" vertex="1">
                    <mxGeometry x="330" y="570" width="190" height="160" as="geometry"/>
                </mxCell>
                <mxCell id="140" value="" style="shape=tableRow;horizontal=0;startSize=0;swimlaneHead=0;swimlaneBody=0;top=0;left=0;bottom=0;right=0;collapsible=0;dropTarget=0;fillColor=none;points=[[0,0.5],[1,0.5]];portConstraint=eastwest;labelBorderColor=none;sketch=0;fillStyle=auto;strokeColor=#B3FF66;" parent="139" vertex="1">
                    <mxGeometry y="30" width="190" height="20" as="geometry"/>
                </mxCell>
                <mxCell id="141" value="ID" style="shape=partialRectangle;html=1;whiteSpace=wrap;connectable=0;fillColor=none;top=0;left=0;bottom=0;right=0;overflow=hidden;pointerEvents=1;labelBorderColor=none;sketch=0;fillStyle=auto;strokeColor=#B3FF66;" parent="140" vertex="1">
                    <mxGeometry width="95" height="20" as="geometry">
                        <mxRectangle width="95" height="20" as="alternateBounds"/>
                    </mxGeometry>
                </mxCell>
                <mxCell id="142" value="SERIAL&amp;nbsp;&lt;br&gt;" style="shape=partialRectangle;html=1;whiteSpace=wrap;connectable=0;fillColor=none;top=0;left=0;bottom=0;right=0;align=left;spacingLeft=6;overflow=hidden;labelBorderColor=none;sketch=0;fillStyle=auto;strokeColor=#B3FF66;" parent="140" vertex="1">
                    <mxGeometry x="95" width="95" height="20" as="geometry">
                        <mxRectangle width="95" height="20" as="alternateBounds"/>
                    </mxGeometry>
                </mxCell>
                <mxCell id="143" value="" style="shape=tableRow;horizontal=0;startSize=0;swimlaneHead=0;swimlaneBody=0;top=0;left=0;bottom=0;right=0;collapsible=0;dropTarget=0;fillColor=none;points=[[0,0.5],[1,0.5]];portConstraint=eastwest;labelBorderColor=none;sketch=0;fillStyle=auto;strokeColor=#B3FF66;" parent="139" vertex="1">
                    <mxGeometry y="50" width="190" height="30" as="geometry"/>
                </mxCell>
                <mxCell id="144" value="CONTINENT" style="shape=partialRectangle;html=1;whiteSpace=wrap;connectable=0;fillColor=none;top=0;left=0;bottom=0;right=0;overflow=hidden;pointerEvents=1;labelBorderColor=none;sketch=0;fillStyle=auto;strokeColor=#B3FF66;" parent="143" vertex="1">
                    <mxGeometry width="95" height="30" as="geometry">
                        <mxRectangle width="95" height="30" as="alternateBounds"/>
                    </mxGeometry>
                </mxCell>
                <mxCell id="145" value="VARCHAR" style="shape=partialRectangle;html=1;whiteSpace=wrap;connectable=0;fillColor=none;top=0;left=0;bottom=0;right=0;align=left;spacingLeft=6;overflow=hidden;labelBorderColor=none;sketch=0;fillStyle=auto;strokeColor=#B3FF66;" parent="143" vertex="1">
                    <mxGeometry x="95" width="95" height="30" as="geometry">
                        <mxRectangle width="95" height="30" as="alternateBounds"/>
                    </mxGeometry>
                </mxCell>
                <mxCell id="146" value="" style="shape=tableRow;horizontal=0;startSize=0;swimlaneHead=0;swimlaneBody=0;top=0;left=0;bottom=0;right=0;collapsible=0;dropTarget=0;fillColor=none;points=[[0,0.5],[1,0.5]];portConstraint=eastwest;labelBorderColor=none;sketch=0;fillStyle=auto;strokeColor=#B3FF66;" parent="139" vertex="1">
                    <mxGeometry y="80" width="190" height="20" as="geometry"/>
                </mxCell>
                <mxCell id="147" value="TITLE" style="shape=partialRectangle;html=1;whiteSpace=wrap;connectable=0;fillColor=none;top=0;left=0;bottom=0;right=0;overflow=hidden;pointerEvents=1;labelBorderColor=none;sketch=0;fillStyle=auto;strokeColor=#B3FF66;" parent="146" vertex="1">
                    <mxGeometry width="95" height="20" as="geometry">
                        <mxRectangle width="95" height="20" as="alternateBounds"/>
                    </mxGeometry>
                </mxCell>
                <mxCell id="148" value="VARCHAR" style="shape=partialRectangle;html=1;whiteSpace=wrap;connectable=0;fillColor=none;top=0;left=0;bottom=0;right=0;align=left;spacingLeft=6;overflow=hidden;labelBorderColor=none;sketch=0;fillStyle=auto;strokeColor=#B3FF66;" parent="146" vertex="1">
                    <mxGeometry x="95" width="95" height="20" as="geometry">
                        <mxRectangle width="95" height="20" as="alternateBounds"/>
                    </mxGeometry>
                </mxCell>
                <mxCell id="149" value="" style="shape=tableRow;horizontal=0;startSize=0;swimlaneHead=0;swimlaneBody=0;top=0;left=0;bottom=0;right=0;collapsible=0;dropTarget=0;fillColor=none;points=[[0,0.5],[1,0.5]];portConstraint=eastwest;labelBorderColor=none;sketch=0;fillStyle=auto;strokeColor=#B3FF66;" parent="139" vertex="1">
                    <mxGeometry y="100" width="190" height="30" as="geometry"/>
                </mxCell>
                <mxCell id="150" value="DESTINATIONS" style="shape=partialRectangle;html=1;whiteSpace=wrap;connectable=0;fillColor=none;top=0;left=0;bottom=0;right=0;overflow=hidden;labelBorderColor=none;sketch=0;fillStyle=auto;strokeColor=#B3FF66;" parent="149" vertex="1">
                    <mxGeometry width="95" height="30" as="geometry">
                        <mxRectangle width="95" height="30" as="alternateBounds"/>
                    </mxGeometry>
                </mxCell>
                <mxCell id="151" value="VARCHAR" style="shape=partialRectangle;html=1;whiteSpace=wrap;connectable=0;fillColor=none;top=0;left=0;bottom=0;right=0;align=left;spacingLeft=6;overflow=hidden;labelBorderColor=none;sketch=0;fillStyle=auto;strokeColor=#B3FF66;" parent="149" vertex="1">
                    <mxGeometry x="95" width="95" height="30" as="geometry">
                        <mxRectangle width="95" height="30" as="alternateBounds"/>
                    </mxGeometry>
                </mxCell>
                <mxCell id="152" value="" style="shape=tableRow;horizontal=0;startSize=0;swimlaneHead=0;swimlaneBody=0;top=0;left=0;bottom=0;right=0;collapsible=0;dropTarget=0;fillColor=none;points=[[0,0.5],[1,0.5]];portConstraint=eastwest;labelBorderColor=none;sketch=0;fillStyle=auto;strokeColor=#B3FF66;" parent="139" vertex="1">
                    <mxGeometry y="130" width="190" height="30" as="geometry"/>
                </mxCell>
                <mxCell id="153" value="DESCRIPTION" style="shape=partialRectangle;html=1;whiteSpace=wrap;connectable=0;fillColor=none;top=0;left=0;bottom=0;right=0;overflow=hidden;labelBorderColor=none;sketch=0;fillStyle=auto;strokeColor=#B3FF66;strokeWidth=1;" parent="152" vertex="1">
                    <mxGeometry width="95" height="30" as="geometry">
                        <mxRectangle width="95" height="30" as="alternateBounds"/>
                    </mxGeometry>
                </mxCell>
                <mxCell id="154" value="VARCHAR" style="shape=partialRectangle;html=1;whiteSpace=wrap;connectable=0;fillColor=none;top=0;left=0;bottom=0;right=0;align=left;spacingLeft=6;overflow=hidden;labelBorderColor=none;sketch=0;fillStyle=auto;strokeColor=#B3FF66;" parent="152" vertex="1">
                    <mxGeometry x="95" width="95" height="30" as="geometry">
                        <mxRectangle width="95" height="30" as="alternateBounds"/>
                    </mxGeometry>
                </mxCell>
                <mxCell id="155" value="COMMENTARIES" style="shape=table;startSize=30;container=1;collapsible=0;childLayout=tableLayout;fixedRows=1;rowLines=0;fontStyle=1;labelBorderColor=none;sketch=0;fillStyle=hatch;gradientDirection=north;strokeColor=#B3FF66;" parent="1" vertex="1">
                    <mxGeometry x="630" y="350" width="180" height="110" as="geometry"/>
                </mxCell>
                <mxCell id="156" value="" style="shape=tableRow;horizontal=0;startSize=0;swimlaneHead=0;swimlaneBody=0;top=0;left=0;bottom=0;right=0;collapsible=0;dropTarget=0;fillColor=none;points=[[0,0.5],[1,0.5]];portConstraint=eastwest;labelBorderColor=none;sketch=0;fillStyle=auto;strokeColor=#B3FF66;" parent="155" vertex="1">
                    <mxGeometry y="30" width="180" height="30" as="geometry"/>
                </mxCell>
                <mxCell id="157" value="ID" style="shape=partialRectangle;html=1;whiteSpace=wrap;connectable=0;fillColor=none;top=0;left=0;bottom=0;right=0;overflow=hidden;pointerEvents=1;labelBorderColor=none;sketch=0;fillStyle=auto;strokeColor=#B3FF66;" parent="156" vertex="1">
                    <mxGeometry width="100" height="30" as="geometry">
                        <mxRectangle width="100" height="30" as="alternateBounds"/>
                    </mxGeometry>
                </mxCell>
                <mxCell id="158" value="SERIAL" style="shape=partialRectangle;html=1;whiteSpace=wrap;connectable=0;fillColor=none;top=0;left=0;bottom=0;right=0;align=left;spacingLeft=6;overflow=hidden;labelBorderColor=none;sketch=0;fillStyle=auto;strokeColor=#B3FF66;" parent="156" vertex="1">
                    <mxGeometry x="100" width="80" height="30" as="geometry">
                        <mxRectangle width="80" height="30" as="alternateBounds"/>
                    </mxGeometry>
                </mxCell>
                <mxCell id="159" value="" style="shape=tableRow;horizontal=0;startSize=0;swimlaneHead=0;swimlaneBody=0;top=0;left=0;bottom=0;right=0;collapsible=0;dropTarget=0;fillColor=none;points=[[0,0.5],[1,0.5]];portConstraint=eastwest;labelBorderColor=none;sketch=0;fillStyle=auto;strokeColor=#B3FF66;" parent="155" vertex="1">
                    <mxGeometry y="60" width="180" height="30" as="geometry"/>
                </mxCell>
                <mxCell id="160" value="CONTENT" style="shape=partialRectangle;html=1;whiteSpace=wrap;connectable=0;fillColor=none;top=0;left=0;bottom=0;right=0;overflow=hidden;pointerEvents=1;labelBorderColor=none;sketch=0;fillStyle=auto;strokeColor=#B3FF66;" parent="159" vertex="1">
                    <mxGeometry width="100" height="30" as="geometry">
                        <mxRectangle width="100" height="30" as="alternateBounds"/>
                    </mxGeometry>
                </mxCell>
                <mxCell id="161" value="VARCHAR" style="shape=partialRectangle;html=1;whiteSpace=wrap;connectable=0;fillColor=none;top=0;left=0;bottom=0;right=0;align=left;spacingLeft=6;overflow=hidden;labelBorderColor=none;sketch=0;fillStyle=auto;strokeColor=#B3FF66;" parent="159" vertex="1">
                    <mxGeometry x="100" width="80" height="30" as="geometry">
                        <mxRectangle width="80" height="30" as="alternateBounds"/>
                    </mxGeometry>
                </mxCell>
                <mxCell id="162" value="" style="shape=tableRow;horizontal=0;startSize=0;swimlaneHead=0;swimlaneBody=0;top=0;left=0;bottom=0;right=0;collapsible=0;dropTarget=0;fillColor=none;points=[[0,0.5],[1,0.5]];portConstraint=eastwest;labelBorderColor=none;sketch=0;fillStyle=auto;strokeColor=#B3FF66;" parent="155" vertex="1">
                    <mxGeometry y="90" width="180" height="20" as="geometry"/>
                </mxCell>
                <mxCell id="163" value="" style="shape=partialRectangle;html=1;whiteSpace=wrap;connectable=0;fillColor=none;top=0;left=0;bottom=0;right=0;overflow=hidden;pointerEvents=1;labelBorderColor=none;sketch=0;fillStyle=auto;strokeColor=#B3FF66;" parent="162" vertex="1">
                    <mxGeometry width="100" height="20" as="geometry">
                        <mxRectangle width="100" height="20" as="alternateBounds"/>
                    </mxGeometry>
                </mxCell>
                <mxCell id="164" value="" style="shape=partialRectangle;html=1;whiteSpace=wrap;connectable=0;fillColor=none;top=0;left=0;bottom=0;right=0;align=left;spacingLeft=6;overflow=hidden;labelBorderColor=none;sketch=0;fillStyle=auto;strokeColor=#B3FF66;" parent="162" vertex="1">
                    <mxGeometry x="100" width="80" height="20" as="geometry">
                        <mxRectangle width="80" height="20" as="alternateBounds"/>
                    </mxGeometry>
                </mxCell>
                <mxCell id="172" value="LIKES" style="shape=table;startSize=30;container=1;collapsible=0;childLayout=tableLayout;fixedRows=1;rowLines=0;fontStyle=1;labelBorderColor=none;sketch=0;fillStyle=hatch;gradientDirection=north;strokeColor=#B3FF66;" parent="1" vertex="1">
                    <mxGeometry x="630" y="600" width="180" height="60" as="geometry"/>
                </mxCell>
                <mxCell id="173" value="" style="shape=tableRow;horizontal=0;startSize=0;swimlaneHead=0;swimlaneBody=0;top=0;left=0;bottom=0;right=0;collapsible=0;dropTarget=0;fillColor=none;points=[[0,0.5],[1,0.5]];portConstraint=eastwest;labelBorderColor=none;sketch=0;fillStyle=auto;strokeColor=#B3FF66;" parent="172" vertex="1">
                    <mxGeometry y="30" width="180" height="30" as="geometry"/>
                </mxCell>
                <mxCell id="174" value="ID" style="shape=partialRectangle;html=1;whiteSpace=wrap;connectable=0;fillColor=none;top=0;left=0;bottom=0;right=0;overflow=hidden;pointerEvents=1;labelBorderColor=none;sketch=0;fillStyle=auto;strokeColor=#B3FF66;" parent="173" vertex="1">
                    <mxGeometry width="100" height="30" as="geometry">
                        <mxRectangle width="100" height="30" as="alternateBounds"/>
                    </mxGeometry>
                </mxCell>
                <mxCell id="175" value="SERIAL" style="shape=partialRectangle;html=1;whiteSpace=wrap;connectable=0;fillColor=none;top=0;left=0;bottom=0;right=0;align=left;spacingLeft=6;overflow=hidden;labelBorderColor=none;sketch=0;fillStyle=auto;strokeColor=#B3FF66;" parent="173" vertex="1">
                    <mxGeometry x="100" width="80" height="30" as="geometry">
                        <mxRectangle width="80" height="30" as="alternateBounds"/>
                    </mxGeometry>
                </mxCell>
                <mxCell id="190" value="" style="endArrow=classic;html=1;edgeStyle=orthogonalEdgeStyle;exitX=0;exitY=0.5;exitDx=0;exitDy=0;entryX=0.5;entryY=0;entryDx=0;entryDy=0;" parent="1" source="143" target="105" edge="1">
                    <mxGeometry width="50" height="50" relative="1" as="geometry">
                        <mxPoint x="280" y="650" as="sourcePoint"/>
                        <mxPoint x="220" y="350" as="targetPoint"/>
                        <Array as="points">
                            <mxPoint x="260" y="635"/>
                            <mxPoint x="260" y="410"/>
                            <mxPoint x="130" y="410"/>
                        </Array>
                    </mxGeometry>
                </mxCell>
                <mxCell id="195" value="" style="endArrow=classic;html=1;edgeStyle=orthogonalEdgeStyle;entryX=0.475;entryY=1.133;entryDx=0;entryDy=0;entryPerimeter=0;exitX=0.25;exitY=0;exitDx=0;exitDy=0;" parent="1" source="139" target="135" edge="1">
                    <mxGeometry width="50" height="50" relative="1" as="geometry">
                        <mxPoint x="400" y="560" as="sourcePoint"/>
                        <mxPoint x="410" y="490" as="targetPoint"/>
                        <Array as="points">
                            <mxPoint x="400" y="570"/>
                            <mxPoint x="400" y="510"/>
                            <mxPoint x="406" y="510"/>
                        </Array>
                    </mxGeometry>
                </mxCell>
                <mxCell id="198" value="" style="endArrow=classic;html=1;exitX=0.5;exitY=0;exitDx=0;exitDy=0;entryX=0.5;entryY=0;entryDx=0;entryDy=0;" parent="1" source="155" target="139" edge="1">
                    <mxGeometry width="50" height="50" relative="1" as="geometry">
                        <mxPoint x="710" y="330" as="sourcePoint"/>
                        <mxPoint x="440" y="550" as="targetPoint"/>
                        <Array as="points">
                            <mxPoint x="720" y="330"/>
                            <mxPoint x="670" y="330"/>
                            <mxPoint x="600" y="330"/>
                            <mxPoint x="600" y="430"/>
                            <mxPoint x="600" y="520"/>
                            <mxPoint x="450" y="520"/>
                            <mxPoint x="425" y="520"/>
                        </Array>
                    </mxGeometry>
                </mxCell>
                <mxCell id="199" value="" style="endArrow=classic;html=1;edgeStyle=orthogonalEdgeStyle;exitX=0;exitY=0.25;exitDx=0;exitDy=0;entryX=0.818;entryY=0;entryDx=0;entryDy=0;entryPerimeter=0;" parent="1" source="172" target="139" edge="1">
                    <mxGeometry width="50" height="50" relative="1" as="geometry">
                        <mxPoint x="620" y="630" as="sourcePoint"/>
                        <mxPoint x="480" y="550" as="targetPoint"/>
                        <Array as="points">
                            <mxPoint x="540" y="615"/>
                            <mxPoint x="540" y="550"/>
                            <mxPoint x="485" y="550"/>
                        </Array>
                    </mxGeometry>
                </mxCell>
                <mxCell id="202" value="" style="endArrow=classic;html=1;exitX=0.675;exitY=-0.022;exitDx=0;exitDy=0;exitPerimeter=0;edgeStyle=orthogonalEdgeStyle;entryX=0.5;entryY=0;entryDx=0;entryDy=0;" parent="1" source="105" target="172" edge="1">
                    <mxGeometry width="50" height="50" relative="1" as="geometry">
                        <mxPoint x="380" y="680" as="sourcePoint"/>
                        <mxPoint x="720" y="590" as="targetPoint"/>
                        <Array as="points">
                            <mxPoint x="162" y="420"/>
                            <mxPoint x="240" y="420"/>
                            <mxPoint x="240" y="820"/>
                            <mxPoint x="610" y="820"/>
                            <mxPoint x="610" y="580"/>
                            <mxPoint x="720" y="580"/>
                        </Array>
                    </mxGeometry>
                </mxCell>
                <mxCell id="203" value="" style="endArrow=classic;html=1;edgeStyle=orthogonalEdgeStyle;entryX=0.75;entryY=0;entryDx=0;entryDy=0;" parent="1" target="155" edge="1">
                    <mxGeometry width="50" height="50" relative="1" as="geometry">
                        <mxPoint x="90" y="430" as="sourcePoint"/>
                        <mxPoint x="730" y="210" as="targetPoint"/>
                        <Array as="points">
                            <mxPoint x="90" y="240"/>
                            <mxPoint x="765" y="240"/>
                        </Array>
                    </mxGeometry>
                </mxCell>
            </root>
        </mxGraphModel>
    </diagram>
</mxfile>